HIERARCHY
ROOT newVegas:Hips
{
	OFFSET 0.000000 96.479958 0.000000
	CHANNELS 6 Xposition Yposition Zposition Xrotation Yrotation Zrotation
	JOINT newVegas:Pelvis
	{
		OFFSET 0.000000 0.000000 0.000000
		CHANNELS 3 Xrotation Yrotation Zrotation
		JOINT newVegas:LeftUpLeg
		{
			OFFSET 18.735201 -5.666702 -4.541200
			CHANNELS 3 Xrotation Yrotation Zrotation
			JOINT newVegas:LeftLeg
			{
				OFFSET -0.021200 -31.938179 0.493100
				CHANNELS 3 Xrotation Yrotation Zrotation
				JOINT newVegas:LeftFoot
				{
					OFFSET 0.021200 -31.938179 -4.336299
					CHANNELS 3 Xrotation Yrotation Zrotation
					JOINT newVegas:LeftToeBase
					{
						OFFSET 0.943001 -26.722000 15.023500
						CHANNELS 3 Xrotation Yrotation Zrotation
						End Site
						{
							OFFSET 0.000000 30.670183 0.000000
						}
					}
				}
				JOINT newVegas:Left_PantLeg
				{
					OFFSET 0.663870 -9.044666 -1.108900
					CHANNELS 3 Xrotation Yrotation Zrotation
					End Site
					{
						OFFSET 1.415995 20.635357 0.000000
					}
				}
			}
		}
		JOINT newVegas:RightUpLeg
		{
			OFFSET -18.735201 -5.666702 -4.541200
			CHANNELS 3 Xrotation Yrotation Zrotation
			JOINT newVegas:RightLeg
			{
				OFFSET 0.018946 -31.938133 0.493100
				CHANNELS 3 Xrotation Yrotation Zrotation
				JOINT newVegas:RightFoot
				{
					OFFSET -0.018946 -31.938126 -4.336299
					CHANNELS 3 Xrotation Yrotation Zrotation
					JOINT newVegas:RightToeBase
					{
						OFFSET -0.943001 -26.722004 15.023500
						CHANNELS 3 Xrotation Yrotation Zrotation
						End Site
						{
							OFFSET 0.000000 30.670187 0.000000
						}
					}
				}
				JOINT newVegas:Right_PantLeg
				{
					OFFSET -0.661674 -9.044716 -1.108900
					CHANNELS 3 Xrotation Yrotation Zrotation
					End Site
					{
						OFFSET -1.415958 20.635269 0.000000
					}
				}
			}
		}
	}
	JOINT newVegas:Spine
	{
		OFFSET 0.000000 10.199997 -0.299500
		CHANNELS 3 Xrotation Yrotation Zrotation
		JOINT newVegas:Spine1
		{
			OFFSET 0.000000 11.900002 -1.516600
			CHANNELS 3 Xrotation Yrotation Zrotation
			JOINT newVegas:Spine2
			{
				OFFSET 0.000000 13.600006 -2.842500
				CHANNELS 3 Xrotation Yrotation Zrotation
				JOINT newVegas:Neck
				{
					OFFSET 0.000000 9.624100 -2.890100
					CHANNELS 3 Xrotation Yrotation Zrotation
					JOINT newVegas:Head
					{
						OFFSET 0.000000 14.068802 -1.351900
						CHANNELS 3 Xrotation Yrotation Zrotation
						JOINT newVegas:Hair_Back
						{
							OFFSET 0.000000 3.231903 -17.524799
							CHANNELS 3 Xrotation Yrotation Zrotation
							End Site
							{
								OFFSET 0.000000 19.849884 0.000000
							}
						}
						JOINT newVegas:Hair_Front
						{
							OFFSET 0.000000 31.260406 4.573800
							CHANNELS 3 Xrotation Yrotation Zrotation
							JOINT newVegas:Hair_Front1
							{
								OFFSET 0.000000 2.284103 11.993300
								CHANNELS 3 Xrotation Yrotation Zrotation
								JOINT newVegas:Hair_Front2
								{
									OFFSET 0.000000 2.284103 11.993300
									CHANNELS 3 Xrotation Yrotation Zrotation
									End Site
									{
										OFFSET 0.000000 12.208862 0.000000
									}
								}
							}
						}
						JOINT newVegas:Jowel
						{
							OFFSET 0.000000 -7.458206 6.864100
							CHANNELS 3 Xrotation Yrotation Zrotation
							End Site
							{
								OFFSET 0.000000 19.849884 0.000000
							}
						}
					}
				}
				JOINT newVegas:LeftShoulder
				{
					OFFSET 15.263000 10.923401 -0.547700
					CHANNELS 3 Xrotation Yrotation Zrotation
					JOINT newVegas:LeftArm
					{
						OFFSET 25.438599 -2.830597 -13.032500
						CHANNELS 3 Xrotation Yrotation Zrotation
						JOINT newVegas:LeftForeArm
						{
							OFFSET 29.960503 0.000000 0.000000
							CHANNELS 3 Xrotation Yrotation Zrotation
							JOINT newVegas:LeftHand
							{
								OFFSET 27.849251 0.000000 0.000000
								CHANNELS 3 Xrotation Yrotation Zrotation
								JOINT newVegas:LeftHandThumb1
								{
									OFFSET 4.487587 -3.305161 6.305391
									CHANNELS 3 Xrotation Yrotation Zrotation
									JOINT newVegas:LeftHandThumb2
									{
										OFFSET 5.480453 -3.164139 3.164143
										CHANNELS 3 Xrotation Yrotation Zrotation
										JOINT newVegas:LeftHandThumb3
										{
											OFFSET 5.159721 -2.978973 2.978967
											CHANNELS 3 Xrotation Yrotation Zrotation
											End Site
											{
												OFFSET 2.494507 5.926697 1.738678
											}
										}
									}
								}
								JOINT newVegas:LeftHandIndex1
								{
									OFFSET 18.578728 -0.527832 5.208049
									CHANNELS 3 Xrotation Yrotation Zrotation
									JOINT newVegas:LeftHandIndex2
									{
										OFFSET 3.192009 0.000000 0.000000
										CHANNELS 3 Xrotation Yrotation Zrotation
										JOINT newVegas:LeftHandIndex3
										{
											OFFSET 3.835129 0.000000 0.000000
											CHANNELS 3 Xrotation Yrotation Zrotation
											End Site
											{
												OFFSET -0.034599 3.816971 0.371180
											}
										}
									}
								}
								JOINT newVegas:LeftHandMiddle1
								{
									OFFSET 18.476105 0.000000 0.000000
									CHANNELS 3 Xrotation Yrotation Zrotation
									JOINT newVegas:LeftHandMiddle2
									{
										OFFSET 3.324875 0.000000 0.000000
										CHANNELS 3 Xrotation Yrotation Zrotation
										JOINT newVegas:LeftHandMiddle3
										{
											OFFSET 4.596550 0.000000 0.000000
											CHANNELS 3 Xrotation Yrotation Zrotation
											End Site
											{
												OFFSET 0.057701 4.578827 0.399218
											}
										}
									}
								}
								JOINT newVegas:LeftHandRing1
								{
									OFFSET 17.732719 0.121887 -4.201567
									CHANNELS 3 Xrotation Yrotation Zrotation
									JOINT newVegas:LeftHandRing2
									{
										OFFSET 2.733170 0.000000 0.000000
										CHANNELS 3 Xrotation Yrotation Zrotation
										JOINT newVegas:LeftHandRing3
										{
											OFFSET 3.178268 0.000000 0.000000
											CHANNELS 3 Xrotation Yrotation Zrotation
											End Site
											{
												OFFSET 0.119102 3.170624 0.185394
											}
										}
									}
								}
								JOINT newVegas:LeftHandPinky1
								{
									OFFSET 15.989624 -0.606689 -7.535461
									CHANNELS 3 Xrotation Yrotation Zrotation
									JOINT newVegas:LeftHandPinky2
									{
										OFFSET 2.538986 0.000000 0.000000
										CHANNELS 3 Xrotation Yrotation Zrotation
										JOINT newVegas:LeftHandPinky3
										{
											OFFSET 2.593102 0.000000 0.000000
											CHANNELS 3 Xrotation Yrotation Zrotation
											End Site
											{
												OFFSET -0.150902 2.584198 0.152708
											}
										}
									}
								}
							}
							JOINT newVegas:Left_Sleeve
							{
								OFFSET 0.267448 -0.649796 0.577675
								CHANNELS 3 Xrotation Yrotation Zrotation
								End Site
								{
									OFFSET 0.000000 15.991241 0.000000
								}
							}
							JOINT newVegas:Left_CapeC
							{
								OFFSET 15.715958 -8.608795 -6.935905
								CHANNELS 3 Xrotation Yrotation Zrotation
								JOINT newVegas:Left_CapeC1
								{
									OFFSET 0.000000 -8.688499 0.000000
									CHANNELS 3 Xrotation Yrotation Zrotation
									End Site
									{
										OFFSET 0.000000 8.688499 0.000000
									}
								}
							}
						}
						JOINT newVegas:Left_CapeB
						{
							OFFSET 26.118385 -8.608795 -7.079235
							CHANNELS 3 Xrotation Yrotation Zrotation
							JOINT newVegas:Left_CapeB1
							{
								OFFSET 0.000000 -8.688499 0.000000
								CHANNELS 3 Xrotation Yrotation Zrotation
								End Site
								{
									OFFSET 0.000000 8.688499 0.000000
								}
							}
						}
						JOINT newVegas:Left_CapeA
						{
							OFFSET 5.115639 -8.608795 -10.395809
							CHANNELS 3 Xrotation Yrotation Zrotation
							JOINT newVegas:Left_CapeA1
							{
								OFFSET 0.000000 -8.688499 0.000000
								CHANNELS 3 Xrotation Yrotation Zrotation
								End Site
								{
									OFFSET 0.000000 8.688499 0.000000
								}
							}
						}
					}
				}
				JOINT newVegas:RightShoulder
				{
					OFFSET -15.263000 10.923401 -0.547700
					CHANNELS 3 Xrotation Yrotation Zrotation
					JOINT newVegas:RightArm
					{
						OFFSET -25.438599 -2.830597 -13.032500
						CHANNELS 3 Xrotation Yrotation Zrotation
						JOINT newVegas:RightForeArm
						{
							OFFSET -29.960503 0.000000 0.000000
							CHANNELS 3 Xrotation Yrotation Zrotation
							JOINT newVegas:RightHand
							{
								OFFSET -27.849251 0.000000 0.000000
								CHANNELS 3 Xrotation Yrotation Zrotation
								JOINT newVegas:RightHandThumb1
								{
									OFFSET -4.487587 -3.305161 6.305391
									CHANNELS 3 Xrotation Yrotation Zrotation
									JOINT newVegas:RightHandThumb2
									{
										OFFSET -5.480453 -3.164139 3.164143
										CHANNELS 3 Xrotation Yrotation Zrotation
										JOINT newVegas:RightHandThumb3
										{
											OFFSET -5.159721 -2.978973 2.978967
											CHANNELS 3 Xrotation Yrotation Zrotation
											End Site
											{
												OFFSET -2.494507 5.926697 1.738678
											}
										}
									}
								}
								JOINT newVegas:RightHandIndex1
								{
									OFFSET -18.578728 -0.527832 5.208049
									CHANNELS 3 Xrotation Yrotation Zrotation
									JOINT newVegas:RightHandIndex2
									{
										OFFSET -3.192009 0.000000 0.000000
										CHANNELS 3 Xrotation Yrotation Zrotation
										JOINT newVegas:RightHandIndex3
										{
											OFFSET -3.835129 0.000000 0.000000
											CHANNELS 3 Xrotation Yrotation Zrotation
											End Site
											{
												OFFSET 0.034599 3.816971 0.371180
											}
										}
									}
								}
								JOINT newVegas:RightHandMiddle1
								{
									OFFSET -18.476105 0.000000 0.000000
									CHANNELS 3 Xrotation Yrotation Zrotation
									JOINT newVegas:RightHandMiddle2
									{
										OFFSET -3.324875 0.000000 0.000000
										CHANNELS 3 Xrotation Yrotation Zrotation
										JOINT newVegas:RightHandMiddle3
										{
											OFFSET -4.596550 0.000000 0.000000
											CHANNELS 3 Xrotation Yrotation Zrotation
											End Site
											{
												OFFSET -0.057701 4.578827 0.399218
											}
										}
									}
								}
								JOINT newVegas:RightHandRing1
								{
									OFFSET -17.732719 0.121887 -4.201567
									CHANNELS 3 Xrotation Yrotation Zrotation
									JOINT newVegas:RightHandRing2
									{
										OFFSET -2.733170 0.000000 0.000000
										CHANNELS 3 Xrotation Yrotation Zrotation
										JOINT newVegas:RightHandRing3
										{
											OFFSET -3.178268 0.000000 0.000000
											CHANNELS 3 Xrotation Yrotation Zrotation
											End Site
											{
												OFFSET -0.119102 3.170624 0.185394
											}
										}
									}
								}
								JOINT newVegas:RightHandPinky1
								{
									OFFSET -15.989624 -0.606689 -7.535461
									CHANNELS 3 Xrotation Yrotation Zrotation
									JOINT newVegas:RightHandPinky2
									{
										OFFSET -2.538986 0.000000 0.000000
										CHANNELS 3 Xrotation Yrotation Zrotation
										JOINT newVegas:RightHandPinky3
										{
											OFFSET -2.593102 0.000000 0.000000
											CHANNELS 3 Xrotation Yrotation Zrotation
											End Site
											{
												OFFSET 0.150902 2.584198 0.152708
											}
										}
									}
								}
							}
							JOINT newVegas:Right_CapeC
							{
								OFFSET -15.715958 -8.608795 -6.935905
								CHANNELS 3 Xrotation Yrotation Zrotation
								JOINT newVegas:Right_CapeC1
								{
									OFFSET 0.000000 -8.688499 0.000000
									CHANNELS 3 Xrotation Yrotation Zrotation
									End Site
									{
										OFFSET 0.000000 8.688499 0.000000
									}
								}
							}
							JOINT newVegas:Right_Sleeve
							{
								OFFSET -0.267448 -0.649994 0.577675
								CHANNELS 3 Xrotation Yrotation Zrotation
								End Site
								{
									OFFSET 0.000000 15.991302 0.000000
								}
							}
						}
						JOINT newVegas:Right_CapeA
						{
							OFFSET -5.115540 -8.608795 -10.395824
							CHANNELS 3 Xrotation Yrotation Zrotation
							JOINT newVegas:Right_CapeA1
							{
								OFFSET 0.000000 -8.688499 0.000000
								CHANNELS 3 Xrotation Yrotation Zrotation
								End Site
								{
									OFFSET 0.000000 8.688499 0.000000
								}
							}
						}
						JOINT newVegas:Right_CapeB
						{
							OFFSET -26.118187 -8.608795 -7.079266
							CHANNELS 3 Xrotation Yrotation Zrotation
							JOINT newVegas:Right_CapeB1
							{
								OFFSET 0.000000 -8.688499 0.000000
								CHANNELS 3 Xrotation Yrotation Zrotation
								End Site
								{
									OFFSET 0.000000 8.688499 0.000000
								}
							}
						}
					}
				}
				JOINT newVegas:Left_Collar
				{
					OFFSET 18.625099 8.655502 8.828100
					CHANNELS 3 Xrotation Yrotation Zrotation
					JOINT newVegas:Left_Collar1
					{
						OFFSET 14.783401 10.540405 -1.259500
						CHANNELS 3 Xrotation Yrotation Zrotation
						End Site
						{
							OFFSET 0.000000 18.199875 0.000000
						}
					}
				}
				JOINT newVegas:Collar_Back
				{
					OFFSET 0.000000 15.630707 -20.132601
					CHANNELS 3 Xrotation Yrotation Zrotation
					End Site
					{
						OFFSET 0.000000 22.523010 0.000000
					}
				}
				JOINT newVegas:Left_Peck
				{
					OFFSET 17.239599 -5.132599 25.482599
					CHANNELS 3 Xrotation Yrotation Zrotation
					End Site
					{
						OFFSET 0.000000 22.523010 0.000000
					}
				}
				JOINT newVegas:Right_Peck
				{
					OFFSET -17.239599 -5.132202 25.482599
					CHANNELS 3 Xrotation Yrotation Zrotation
					End Site
					{
						OFFSET 0.000000 22.523010 0.000000
					}
				}
				JOINT newVegas:Right_Collar
				{
					OFFSET -18.625099 8.655792 8.828100
					CHANNELS 3 Xrotation Yrotation Zrotation
					JOINT newVegas:Right_Collar1
					{
						OFFSET -14.783401 10.539993 -1.259500
						CHANNELS 3 Xrotation Yrotation Zrotation
						End Site
						{
							OFFSET 0.000000 18.199631 0.000000
						}
					}
				}
			}
		}
		JOINT newVegas:Belly
		{
			OFFSET 0.000000 -6.540398 9.014299
			CHANNELS 3 Xrotation Yrotation Zrotation
			End Site
			{
				OFFSET 0.000000 11.566666 0.000000
			}
		}
	}
	JOINT newVegas:ElvisFacialAnim_Joint
	{
		OFFSET 1.000000 -95.330101 -8.825800
		CHANNELS 3 Xrotation Yrotation Zrotation
		End Site
		{
			OFFSET 0.000000 35.315800 0.000000
		}
	}
}
MOTION
Frames: 4
Frame Time: 0.033333
-18.290236 85.605293 301.072510 25.484124 9.067886 5.326754 0.000001 -0.000000 0.000001 -51.678881 5.037387 -7.184354 49.994089 6.777496 -3.973815 -13.456367 -0.773514 3.161531 0.000001 -0.000000 -0.000000 -0.000004 0.000000 0.000001 -58.851560 13.598260 -8.911186 103.878161 -3.665444 0.123047 6.928082 -8.066728 14.893752 -0.000002 -0.000001 -0.000001 0.000001 0.000000 -0.000001 17.700418 1.068774 -1.714556 3.009047 0.119308 2.207699 3.009528 -0.037314 2.248109 -0.292881 0.090957 -0.352224 -0.292912 0.090958 -0.352226 0.000002 0.000001 -0.000000 -0.292758 0.090930 -0.352217 -0.292927 0.090990 -0.352229 0.000006 0.000000 -0.000000 0.000002 0.000001 0.000000 6.852374 -8.158080 5.611771 -52.255506 -1.444589 -36.422052 -0.000015 -54.248911 -0.000010 -27.356419 -23.983536 9.008931 -29.453237 3.878999 1.130281 3.871597 -1.272950 -0.212191 0.000001 0.000001 -0.000003 -1.086810 -13.166274 -5.191675 0.209243 1.553278 -15.343858 -0.000003 0.000000 0.000001 0.183692 3.538713 -11.584084 0.209101 1.552772 -15.338682 -0.000003 -0.000001 0.000000 3.845542 15.690463 -16.357588 0.226947 1.616339 -15.983514 -0.000001 -0.000001 0.000002 1.678446 37.408956 -22.384845 0.209147 1.552927 -15.340338 -0.000000 -0.000002 -0.000001 -0.000000 0.000000 -0.000004 -0.000000 0.000000 -0.000004 -0.000001 0.000000 -0.000005 0.000001 0.000002 0.000003 0.000001 0.000002 0.000001 0.000001 0.000002 0.000003 0.000001 0.000002 0.000002 2.046187 25.366218 -6.352645 -6.745530 3.998023 78.102346 -0.000002 9.606613 0.000009 0.432058 6.046398 -28.941895 -29.046875 -0.870607 3.181305 12.116135 -34.418956 -7.990531 0.000000 -0.000001 0.000001 0.190901 0.957114 -2.486902 0.427693 -1.951330 24.723185 0.000002 -0.000001 -0.000000 0.423558 -6.117042 5.827543 0.177438 -1.274562 15.849988 0.000002 0.000001 -0.000001 2.085267 -12.931781 10.944513 0.692352 -2.445211 31.614661 0.000000 -0.000003 -0.000001 2.704857 -19.619343 24.962834 0.246379 -1.496169 18.700792 0.000003 -0.000000 -0.000001 -0.000002 -0.000001 0.000002 0.000002 0.000000 -0.000001 -0.000002 -0.000001 0.000001 0.000001 -0.000001 -0.000001 0.000001 0.000000 -0.000002 0.000001 -0.000001 -0.000001 0.000001 -0.000000 -0.000002 0.000002 -0.000000 0.000000 0.000002 -0.000000 0.000000 0.000002 -0.000000 0.000000 0.000002 -0.000000 0.000000 0.000002 -0.000000 0.000000 0.000002 -0.000000 0.000000 0.000002 -0.000000 0.000000 -0.000001 0.000000 -0.000001 0.000001 -0.000000 0.000001 
-18.656197 89.013321 309.483826 25.265720 8.316097 3.044574 0.000001 0.000000 0.000000 -41.213402 2.449291 -6.134108 40.869909 7.026006 -0.935124 -10.641173 0.097409 1.250134 -0.000000 0.000000 0.000000 -0.000000 0.000000 0.000001 -64.055146 14.181383 -5.102630 92.445033 -4.670742 -0.344160 0.226647 -12.784387 15.931488 -0.000001 -0.000000 0.000001 0.000003 -0.000000 -0.000000 17.080174 -1.234244 2.985642 2.763640 -0.743204 2.834105 2.727250 -0.877914 2.899401 -0.140842 0.329509 -0.291228 -0.140832 0.329507 -0.291229 -0.000002 -0.000000 0.000001 -0.140839 0.329526 -0.291234 -0.140741 0.329488 -0.291228 -0.000002 -0.000000 -0.000001 -0.000002 -0.000000 0.000000 5.954625 -8.155201 3.414904 -40.638543 -3.129782 -44.492491 -0.000011 -49.164733 -0.000016 -18.590769 -23.740213 9.162741 -29.510987 3.843035 1.153556 3.862257 -1.422672 -0.367978 0.000001 -0.000001 -0.000003 -1.048814 -13.306665 -4.930345 0.208240 1.549664 -15.307395 -0.000001 -0.000001 0.000000 0.178129 3.511359 -11.311701 0.208834 1.551717 -15.328116 0.000002 0.000000 0.000000 3.798232 15.739404 -16.074714 0.226748 1.615675 -15.976810 0.000000 -0.000004 0.000001 1.596759 37.527143 -22.079029 0.209029 1.552461 -15.335621 -0.000000 -0.000009 0.000000 0.000002 -0.000003 -0.000000 0.000002 -0.000003 -0.000000 0.000001 -0.000002 0.000000 0.000000 -0.000001 -0.000002 0.000001 -0.000002 -0.000002 0.000000 -0.000001 -0.000002 -0.000000 -0.000001 -0.000002 1.723547 23.991285 -5.705826 -4.737000 -0.136937 81.519496 0.000007 7.630745 -0.000008 3.365015 -0.068343 -22.055654 -28.871790 -0.835830 3.117887 15.204242 -43.503988 -9.107755 0.000004 -0.000003 -0.000003 -0.080767 -4.969217 -2.756611 0.424622 -1.944654 24.632741 -0.000001 0.000002 -0.000002 1.631082 -8.848714 14.652902 0.180755 -1.286198 15.998651 -0.000002 -0.000001 0.000000 3.589968 -12.647353 20.075073 0.700679 -2.458647 31.808748 -0.000000 0.000001 0.000002 1.745890 -17.079559 34.100717 0.247631 -1.499890 18.749149 -0.000001 0.000003 0.000001 -0.000002 0.000000 -0.000000 -0.000001 -0.000002 0.000000 -0.000002 0.000000 -0.000001 0.000001 -0.000002 0.000001 0.000001 -0.000001 0.000002 0.000001 -0.000002 0.000001 0.000001 -0.000001 -0.000000 -0.000001 0.000000 -0.000000 -0.000001 0.000000 -0.000000 -0.000001 0.000000 -0.000000 -0.000001 0.000000 -0.000000 -0.000001 0.000000 -0.000000 -0.000001 0.000000 -0.000000 -0.000001 0.000000 -0.000000 -0.000000 0.000000 -0.000000 0.000001 0.000000 0.000000 
-19.317781 92.112839 318.281677 24.288006 4.489668 0.613562 -0.000000 0.000000 -0.000000 -29.623005 1.966639 -2.217175 30.715047 6.679069 1.193557 -4.817129 0.196649 -0.888204 0.000000 0.000000 -0.000000 -0.000002 -0.000000 -0.000000 -63.807607 13.730871 -1.251608 73.214676 -5.851779 -0.548657 -4.786210 -16.730262 15.493866 0.000003 0.000001 -0.000000 -0.000002 0.000000 -0.000000 16.802475 -3.488587 7.182629 2.748018 -1.515514 3.302372 2.670325 -1.617766 3.390978 0.091537 0.601666 -0.246199 0.091543 0.601664 -0.246198 0.000001 -0.000000 0.000000 0.091524 0.601666 -0.246197 0.091535 0.601665 -0.246199 -0.000000 0.000000 0.000001 0.000001 -0.000000 0.000000 4.775467 -6.866183 1.197320 -28.631701 -6.332955 -51.528733 0.000004 -39.538551 -0.000012 -12.860507 -23.115891 9.734324 -29.588981 3.791333 1.187637 3.867848 -1.413670 -0.411207 0.000002 -0.000000 -0.000003 -0.994539 -13.405563 -4.673639 0.205505 1.539543 -15.204778 0.000001 -0.000002 0.000000 0.172877 3.484817 -11.047269 0.206246 1.542207 -15.231761 0.000004 0.000001 -0.000003 3.746229 15.767719 -15.800799 0.223897 1.605673 -15.875173 0.000005 0.000001 0.000001 1.473331 37.593354 -21.763191 0.206368 1.542727 -15.236938 0.000001 -0.000002 0.000001 -0.000002 -0.000001 0.000002 -0.000002 -0.000001 0.000002 -0.000002 -0.000000 0.000002 -0.000000 -0.000001 -0.000004 -0.000000 -0.000002 -0.000006 -0.000000 -0.000001 -0.000004 -0.000001 0.000000 -0.000004 1.470270 23.128959 -4.297865 -3.746879 -5.239483 80.914376 -0.000003 8.568980 -0.000009 8.042788 -3.686284 -8.819489 -28.779470 -0.816755 3.084393 17.097082 -48.339902 -9.143155 0.000002 -0.000003 0.000001 0.102549 -8.367876 -0.045620 0.423075 -1.941258 24.586806 -0.000002 0.000003 -0.000002 3.036804 -10.255047 22.794592 0.182770 -1.293181 16.087918 -0.000001 0.000000 0.000001 4.741201 -12.351673 27.467206 0.708032 -2.470449 31.979810 0.000006 0.000001 -0.000001 0.939386 -16.247864 41.379646 0.248262 -1.501751 18.773226 0.000002 -0.000002 -0.000001 0.000000 0.000000 0.000000 0.000000 -0.000002 0.000001 0.000000 -0.000000 0.000000 0.000001 0.000002 -0.000000 0.000001 0.000003 -0.000001 0.000001 0.000002 -0.000000 0.000001 0.000003 -0.000000 0.000001 -0.000000 0.000000 0.000001 -0.000000 0.000000 0.000001 -0.000000 0.000000 0.000001 -0.000000 0.000000 0.000001 -0.000000 0.000000 0.000001 -0.000000 0.000000 0.000001 -0.000000 0.000000 -0.000001 0.000000 -0.000000 -0.000000 0.000000 -0.000000 
-20.188038 93.616341 327.637421 22.596998 -0.804166 -1.516165 0.000000 -0.000000 -0.000000 -17.962054 3.618450 2.373148 24.753813 6.390245 1.741356 -3.010694 -0.117094 -3.728168 0.000000 0.000000 -0.000000 0.000001 0.000000 -0.000000 -60.660105 12.688613 1.347884 50.895349 -4.868440 0.212258 -8.927967 -18.394980 14.764991 -0.000000 -0.000001 0.000000 -0.000000 0.000000 -0.000001 16.540673 -6.418443 10.465702 2.968245 -2.352676 3.586385 2.857554 -2.407920 3.704770 0.424917 0.907295 -0.302604 0.424921 0.907298 -0.302616 -0.000002 0.000001 -0.000001 0.424978 0.907251 -0.302605 0.424736 0.907420 -0.302630 0.000000 -0.000001 0.000000 -0.000002 0.000001 -0.000000 4.018800 -5.628770 -0.096428 -17.253794 -9.653024 -57.883217 -0.000002 -29.211572 -0.000013 -13.277675 -20.115377 10.977857 -29.568961 3.786237 1.194914 3.917861 -0.693859 0.294792 0.000002 -0.000003 -0.000005 -1.087757 -12.987331 -5.162557 0.201393 1.524360 -15.051220 -0.000003 -0.000000 -0.000001 0.183389 3.537343 -11.570244 0.198934 1.515191 -14.958364 0.000001 0.000001 0.000000 3.812444 15.591094 -16.347204 0.215391 1.575445 -15.568399 -0.000000 0.000001 0.000001 1.454349 37.167817 -22.275316 0.198211 1.512471 -14.931060 -0.000000 -0.000003 -0.000000 0.000003 -0.000001 -0.000000 0.000003 -0.000001 -0.000000 0.000002 -0.000001 0.000000 -0.000002 0.000002 0.000000 -0.000001 0.000001 0.000000 -0.000002 0.000002 0.000000 -0.000002 0.000003 0.000000 1.381281 22.788009 -3.435460 -2.728622 -8.774002 77.167341 0.000001 11.294812 -0.000025 11.828570 -4.018249 6.080121 -28.779207 -0.817592 3.084649 16.835399 -48.311608 -8.954408 -0.000000 -0.000001 -0.000000 1.058561 -8.856722 6.746597 0.423835 -1.942929 24.609324 -0.000002 -0.000002 -0.000003 4.080977 -10.332542 30.538978 0.183379 -1.295392 16.115937 -0.000000 -0.000000 -0.000002 5.639494 -12.146958 33.183928 0.714715 -2.481077 32.134134 0.000004 0.000002 -0.000001 1.095589 -16.708026 46.693810 0.248308 -1.501832 18.774513 -0.000001 0.000002 -0.000001 0.000000 0.000003 -0.000000 -0.000000 0.000003 -0.000000 -0.000000 0.000003 -0.000000 0.000000 0.000003 -0.000000 0.000000 0.000003 -0.000000 0.000000 0.000003 -0.000000 0.000000 0.000003 -0.000000 0.000001 -0.000001 -0.000001 0.000001 -0.000001 -0.000001 0.000001 -0.000001 -0.000001 0.000001 -0.000001 -0.000001 0.000001 -0.000001 -0.000001 0.000001 -0.000001 -0.000001 0.000001 -0.000001 -0.000001 0.000001 0.000000 0.000000 0.000000 -0.000000 -0.000000 
